<svg width="210" height="210" viewBox="0 0 210 210" fill="none" xmlns="http://www.w3.org/2000/svg">
<path id="Ellipse 1" d="M204.417 71.2183C211.571 92.2712 211.857 115.052 205.233 136.277C198.61 157.503 185.419 176.078 167.562 189.327C149.705 202.575 128.103 209.812 105.869 209.996C83.6342 210.18 61.9154 203.301 43.8414 190.35C25.7675 177.399 12.2714 159.045 5.29779 137.931C-1.67584 116.818 -1.767 94.036 5.03745 72.8676C11.8419 51.6993 25.1906 33.2374 43.1604 20.1421C61.1302 7.04676 82.7932 -0.00599077 105.028 3.81591e-06L105 105L204.417 71.2183Z" fill="url(#paint0_linear_4_13)"/>
<defs>
<linearGradient id="paint0_linear_4_13" x1="192" y1="-12" x2="26" y2="228" gradientUnits="userSpaceOnUse">
<stop stop-color="#0085FF"/>
<stop offset="1" stop-color="#00FF85"/>
</linearGradient>
</defs>
</svg>
