<svg width="210" height="210" viewBox="0 0 210 210" fill="none" xmlns="http://www.w3.org/2000/svg">
<path id="Ellipse 1" d="M188.32 41.1036C202.739 59.9056 210.375 83.0318 209.986 106.723C209.597 130.414 201.207 153.277 186.179 171.596C171.15 189.915 150.368 202.612 127.21 207.624C104.052 212.636 79.8793 209.668 58.6216 199.202C37.3639 188.736 20.2709 171.388 10.1212 149.978C-0.0285268 128.568 -2.6383 104.354 2.71611 81.2722C8.07052 58.1908 21.0743 37.599 39.6137 22.8439C58.1531 8.08877 81.138 0.0379675 104.832 0.000133853L105 105L188.32 41.1036Z" fill="url(#paint0_linear_4_20)"/>
<defs>
<linearGradient id="paint0_linear_4_20" x1="192" y1="-12" x2="26" y2="228" gradientUnits="userSpaceOnUse">
<stop stop-color="#0085FF"/>
<stop offset="1" stop-color="#00FF85"/>
</linearGradient>
</defs>
</svg>
